<?xml version="1.0" encoding="UTF-8"?>
<svg xmlns="http://www.w3.org/2000/svg" xmlns:xlink="http://www.w3.org/1999/xlink" width="30px" height="30px" viewBox="0 0 30 30" version="1.1">
<g id="surface1">
<path style=" stroke:none;fill-rule:nonzero;fill:rgb(0%,0%,0%);fill-opacity:1;" d="M 21 30 L 8.851562 30 C 6.375 30 4.425781 27.976562 4.425781 25.574219 L 4.425781 12 C 4.425781 11.550781 4.726562 11.25 5.175781 11.25 C 5.625 11.25 5.925781 11.550781 5.925781 12 L 5.925781 25.574219 C 5.925781 27.226562 7.273438 28.5 8.851562 28.5 L 21 28.5 C 22.648438 28.5 23.925781 27.148438 23.925781 25.574219 L 23.925781 12 C 23.925781 11.550781 24.226562 11.25 24.675781 11.25 C 25.125 11.25 25.425781 11.550781 25.425781 12 L 25.425781 25.574219 C 25.425781 27.976562 23.398438 30 21 30 Z M 21 30 "/>
<path style=" stroke:none;fill-rule:nonzero;fill:rgb(0%,0%,0%);fill-opacity:1;" d="M 24.976562 3.675781 L 19.273438 3.675781 C 18.898438 1.574219 17.101562 0 14.925781 0 C 12.75 0 10.949219 1.574219 10.574219 3.675781 L 4.875 3.675781 C 3.148438 3.675781 1.800781 5.023438 1.800781 6.75 C 1.800781 8.476562 3.148438 9.75 4.875 9.75 L 25.050781 9.75 C 26.773438 9.75 28.125 8.398438 28.125 6.675781 C 28.125 4.949219 26.699219 3.675781 24.976562 3.675781 Z M 14.925781 1.5 C 16.273438 1.5 17.398438 2.398438 17.699219 3.675781 L 12.074219 3.675781 C 12.449219 2.398438 13.574219 1.5 14.925781 1.5 Z M 24.976562 8.25 L 4.875 8.25 C 4.050781 8.25 3.300781 7.574219 3.300781 6.675781 C 3.300781 5.851562 3.976562 5.101562 4.875 5.101562 L 25.050781 5.101562 C 25.875 5.101562 26.625 5.773438 26.625 6.675781 C 26.550781 7.574219 25.875 8.25 24.976562 8.25 Z M 24.976562 8.25 "/>
<path style=" stroke:none;fill-rule:nonzero;fill:rgb(0%,0%,0%);fill-opacity:1;" d="M 9.675781 26.324219 C 9.226562 26.324219 8.925781 26.023438 8.925781 25.574219 L 8.925781 13.050781 C 8.925781 12.601562 9.226562 12.300781 9.675781 12.300781 C 10.125 12.300781 10.425781 12.601562 10.425781 13.050781 L 10.425781 25.574219 C 10.425781 25.949219 10.050781 26.324219 9.675781 26.324219 Z M 9.675781 26.324219 "/>
<path style=" stroke:none;fill-rule:nonzero;fill:rgb(0%,0%,0%);fill-opacity:1;" d="M 20.175781 26.324219 C 19.726562 26.324219 19.425781 26.023438 19.425781 25.574219 L 19.425781 13.050781 C 19.425781 12.601562 19.726562 12.300781 20.175781 12.300781 C 20.625 12.300781 20.925781 12.601562 20.925781 13.050781 L 20.925781 25.574219 C 20.925781 25.949219 20.550781 26.324219 20.175781 26.324219 Z M 20.175781 26.324219 "/>
<path style=" stroke:none;fill-rule:nonzero;fill:rgb(0%,0%,0%);fill-opacity:1;" d="M 14.925781 26.324219 C 14.476562 26.324219 14.175781 26.023438 14.175781 25.574219 L 14.175781 13.050781 C 14.175781 12.601562 14.476562 12.300781 14.925781 12.300781 C 15.375 12.300781 15.675781 12.601562 15.675781 13.050781 L 15.675781 25.574219 C 15.675781 25.949219 15.300781 26.324219 14.925781 26.324219 Z M 14.925781 26.324219 "/>
</g>
</svg>
