<?xml version="1.0" encoding="UTF-8"?>
<svg xmlns="http://www.w3.org/2000/svg" xmlns:xlink="http://www.w3.org/1999/xlink" width="30px" height="30px" viewBox="0 0 30 30" version="1.1">
<g id="surface1">
<path style=" stroke:none;fill-rule:nonzero;fill:rgb(0%,0%,0%);fill-opacity:1;" d="M 23.261719 19.226562 L 23.261719 7.238281 L 17.058594 0 L 5.6875 0 C 4.546875 0 3.617188 0.929688 3.617188 2.066406 L 3.617188 25.84375 C 3.617188 26.980469 4.546875 27.914062 5.6875 27.914062 L 16.332031 27.914062 C 17.367188 29.152344 18.917969 29.980469 20.675781 29.980469 C 23.777344 29.980469 26.363281 27.394531 26.363281 24.292969 C 26.363281 22.121094 25.121094 20.160156 23.261719 19.226562 Z M 17.058594 1.550781 L 21.917969 7.238281 L 18.089844 7.238281 C 17.574219 7.238281 17.058594 6.71875 17.058594 6.203125 Z M 5.6875 26.878906 C 5.167969 26.878906 4.652344 26.464844 4.652344 25.84375 L 4.652344 2.066406 C 4.652344 1.550781 5.066406 1.035156 5.6875 1.035156 L 16.023438 1.035156 L 16.023438 6.203125 C 16.023438 7.339844 16.953125 8.269531 18.089844 8.269531 L 22.226562 8.269531 L 22.226562 18.816406 C 21.710938 18.710938 21.191406 18.609375 20.675781 18.609375 C 17.574219 18.609375 14.988281 21.191406 14.988281 24.292969 C 14.988281 25.222656 15.195312 26.050781 15.609375 26.878906 Z M 20.675781 28.945312 C 18.089844 28.945312 16.023438 26.878906 16.023438 24.292969 C 16.023438 21.710938 18.089844 19.640625 20.675781 19.640625 C 23.261719 19.640625 25.328125 21.710938 25.328125 24.292969 C 25.328125 26.878906 23.261719 28.945312 20.675781 28.945312 Z M 20.675781 28.945312 "/>
<path style=" stroke:none;fill-rule:nonzero;fill:rgb(0%,0%,0%);fill-opacity:1;" d="M 20.160156 21.710938 L 21.191406 21.710938 L 21.191406 22.742188 L 20.160156 22.742188 Z M 20.160156 21.710938 "/>
<path style=" stroke:none;fill-rule:nonzero;fill:rgb(0%,0%,0%);fill-opacity:1;" d="M 21.191406 23.777344 L 19.125 23.777344 L 19.125 24.8125 L 20.160156 24.8125 L 20.160156 25.84375 L 19.125 25.84375 L 19.125 26.878906 L 22.226562 26.878906 L 22.226562 25.84375 L 21.191406 25.84375 Z M 21.191406 23.777344 "/>
</g>
</svg>
