<svg version="1.1" xmlns="http://www.w3.org/2000/svg" xmlns:xlink="http://www.w3.org/1999/xlink" width="30px" height="30px" viewBox="0,0,256,256"><g fill="none" fill-rule="nonzero" stroke="none" stroke-width="1" stroke-linecap="butt" stroke-linejoin="miter" stroke-miterlimit="10" stroke-dasharray="" stroke-dashoffset="0" font-family="none" font-weight="none" font-size="none" text-anchor="none" style="mix-blend-mode: normal"><g><g fill="#ffffff"><path d="M0,256v-256h256v256z" id="bgRectangle"></path></g><g fill="#5f9a8c"><g transform="scale(8.53333,8.53333)"><g id="surface1"><path d="M15,0c-8.28516,0 -15,6.71484 -15,15c0,8.28516 6.71484,15 15,15c8.28516,0 15,-6.71484 15,-15c0,-8.28516 -6.71484,-15 -15,-15zM15,28.125c-7.23437,0 -13.125,-5.89062 -13.125,-13.125c0,-7.23437 5.89063,-13.125 13.125,-13.125c7.23438,0 13.125,5.89063 13.125,13.125c0,7.23438 -5.89062,13.125 -13.125,13.125zM22.5,13.125h-5.625v-5.625c0,-1.03516 -0.83984,-1.875 -1.875,-1.875c-1.03516,0 -1.875,0.83984 -1.875,1.875v5.625h-5.625c-1.03516,0 -1.875,0.83984 -1.875,1.875c0,1.03516 0.83984,1.875 1.875,1.875h5.625v5.625c0,1.03516 0.83984,1.875 1.875,1.875c1.03516,0 1.875,-0.83984 1.875,-1.875v-5.625h5.625c1.03516,0 1.875,-0.83984 1.875,-1.875c0,-1.03516 -0.83984,-1.875 -1.875,-1.875zM22.5,13.125"></path></g></g></g></g></g></svg>